<?xml version="1.0" standalone="no"?>
<svg
  width="600"
  height="600"
  viewBox="0 0 600 600"
  xmlns="http://www.w3.org/2000/svg"
>
  <g transform="translate(300,300)">
    <path d="M132,-208.9C171.7,-179.9,205,-144.3,222.2,-102.7C239.4,-61,240.5,-13.1,230,30.3C219.5,73.8,197.4,112.9,170.2,151.7C143.1,190.5,110.8,229.1,68.4,248.9C25.9,268.7,-26.8,269.6,-70.7,251.7C-114.7,233.9,-149.9,197.2,-184.7,159C-219.5,120.8,-253.7,81.1,-263.5,35.8C-273.3,-9.5,-258.5,-60.4,-230.6,-98.6C-202.7,-136.8,-161.6,-162.2,-121,-190.8C-80.4,-219.4,-40.2,-251.2,3,-255.8C46.1,-260.5,92.3,-237.9,132,-208.9Z" fill="#b2bbc9" />
  </g>
</svg>
    